<svg xmlns="http://www.w3.org/2000/svg" viewBox="0 0 512 512" role="img" aria-labelledby="title desc">
  <title id="title">BRI GDELT System Icon</title>
  <desc id="desc">A desktop app icon combining a globe, cooperation network, data signal, and Belt and Road route.</desc>
  <defs>
    <linearGradient id="bg" x1="70" y1="40" x2="442" y2="472" gradientUnits="userSpaceOnUse">
      <stop offset="0" stop-color="#0f766e"/>
      <stop offset="0.52" stop-color="#145c74"/>
      <stop offset="1" stop-color="#1f3f6f"/>
    </linearGradient>
    <linearGradient id="route" x1="116" y1="316" x2="410" y2="171" gradientUnits="userSpaceOnUse">
      <stop offset="0" stop-color="#f7c948"/>
      <stop offset="0.55" stop-color="#f59e0b"/>
      <stop offset="1" stop-color="#ef4444"/>
    </linearGradient>
    <linearGradient id="panel" x1="144" y1="304" x2="338" y2="420" gradientUnits="userSpaceOnUse">
      <stop offset="0" stop-color="#e0f2fe"/>
      <stop offset="1" stop-color="#a7f3d0"/>
    </linearGradient>
    <filter id="softShadow" x="-20%" y="-20%" width="140%" height="140%">
      <feDropShadow dx="0" dy="16" stdDeviation="16" flood-color="#06202a" flood-opacity="0.32"/>
    </filter>
  </defs>

  <rect width="512" height="512" rx="104" fill="url(#bg)"/>
  <circle cx="256" cy="238" r="156" fill="#ffffff" opacity="0.08"/>
  <circle cx="256" cy="238" r="132" fill="none" stroke="#d9fff4" stroke-width="7" opacity="0.74"/>
  <ellipse cx="256" cy="238" rx="132" ry="50" fill="none" stroke="#d9fff4" stroke-width="5" opacity="0.45"/>
  <ellipse cx="256" cy="238" rx="58" ry="132" fill="none" stroke="#d9fff4" stroke-width="5" opacity="0.36"/>
  <path d="M126 220C170 202 211 194 256 194C301 194 342 202 386 220" fill="none" stroke="#d9fff4" stroke-width="5" opacity="0.35"/>
  <path d="M126 256C171 278 213 288 256 288C299 288 341 278 386 256" fill="none" stroke="#d9fff4" stroke-width="5" opacity="0.35"/>

  <path d="M100 324C146 292 176 248 225 258C279 269 296 202 354 191C380 186 402 190 430 204"
        fill="none" stroke="#11313b" stroke-width="26" stroke-linecap="round" opacity="0.22"/>
  <path d="M100 324C146 292 176 248 225 258C279 269 296 202 354 191C380 186 402 190 430 204"
        fill="none" stroke="url(#route)" stroke-width="16" stroke-linecap="round"/>

  <g filter="url(#softShadow)">
    <circle cx="102" cy="324" r="22" fill="#f7c948"/>
    <circle cx="224" cy="258" r="16" fill="#fb7185"/>
    <circle cx="354" cy="191" r="18" fill="#38bdf8"/>
    <circle cx="430" cy="204" r="20" fill="#f59e0b"/>
    <circle cx="102" cy="324" r="8" fill="#fff7cc"/>
    <circle cx="224" cy="258" r="6" fill="#fff1f2"/>
    <circle cx="354" cy="191" r="7" fill="#e0f2fe"/>
    <circle cx="430" cy="204" r="8" fill="#fff7ed"/>
  </g>

  <g opacity="0.88">
    <path d="M162 356H350" stroke="#e7fff8" stroke-width="10" stroke-linecap="round" opacity="0.28"/>
    <path d="M184 334L224 352L263 318L304 334L342 302" fill="none" stroke="#bff7ea" stroke-width="8" stroke-linecap="round" stroke-linejoin="round"/>
    <circle cx="184" cy="334" r="8" fill="#bff7ea"/>
    <circle cx="224" cy="352" r="8" fill="#bff7ea"/>
    <circle cx="263" cy="318" r="8" fill="#bff7ea"/>
    <circle cx="304" cy="334" r="8" fill="#bff7ea"/>
    <circle cx="342" cy="302" r="8" fill="#bff7ea"/>
  </g>

  <g filter="url(#softShadow)">
    <path d="M152 360C152 345.64 163.64 334 178 334H334C348.36 334 360 345.64 360 360V408C360 422.36 348.36 434 334 434H178C163.64 434 152 422.36 152 408V360Z"
          fill="#092b36" opacity="0.72"/>
    <path d="M172 396L208 376L242 388L280 362L333 390" fill="none" stroke="url(#panel)" stroke-width="9" stroke-linecap="round" stroke-linejoin="round"/>
    <rect x="178" y="406" width="28" height="12" rx="6" fill="#a7f3d0" opacity="0.94"/>
    <rect x="218" y="406" width="52" height="12" rx="6" fill="#e0f2fe" opacity="0.9"/>
    <rect x="282" y="406" width="48" height="12" rx="6" fill="#f7c948" opacity="0.92"/>
  </g>

  <path d="M115 128H179M333 128H397M112 452H180M332 452H400" stroke="#ffffff" stroke-width="8" stroke-linecap="round" opacity="0.16"/>
  <path d="M82 84C82 72.95 90.95 64 102 64H142" stroke="#ffffff" stroke-width="8" stroke-linecap="round" opacity="0.22"/>
  <path d="M430 428C430 439.05 421.05 448 410 448H370" stroke="#ffffff" stroke-width="8" stroke-linecap="round" opacity="0.22"/>
</svg>
